<svg viewBox="0 1.9495000000000002 647.15 69.53216666666667" xmlns="http://www.w3.org/2000/svg" data-name="Calque 2" id="Calque_2" style="max-height: 500px" width="647.15" height="69.53216666666667">
  <defs>
    <style>
      .cls-1 {
        fill: #0071bc;
      }

      .cls-2 {
        letter-spacing: 0em;
      }

      .cls-3 {
        fill: #c1272d;
      }

      .cls-4 {
        fill: #333;
        font-family: UnisonPro-LightItalic, 'Unison Pro';
        font-size: 60px;
        font-weight: 300;
        stroke: #333;
        stroke-miterlimit: 10;
        stroke-width: 4px;
      }

      .cls-4, .cls-5 {
        font-style: italic;
      }

      .cls-5 {
        font-family: UnisonPro-BoldItalic, 'Unison Pro';
        font-size: 72px;
        font-weight: 700;
      }

      .cls-5, .cls-6 {
        fill: #e6e6e6;
      }

      .cls-7 {
        letter-spacing: -.01em;
      }
    </style>
  </defs>
  <g data-name="Calque 1" id="Calque_1-2">
    <path d="M578.93,67.46l-343.95.55c3.69-20.97,7.39-41.93,11.08-62.9h345.6c-4.24,20.78-8.49,41.57-12.73,62.35Z" class="cls-6"/>
    <text transform="translate(0 61.2)" class="cls-5"><tspan y="0" x="0" class="cls-7">c</tspan><tspan y="0" x="75.17" class="cls-2">ar</tspan></text>
    <text transform="translate(252.57 57.43)" class="cls-4"><tspan y="0" x="0">m e e t</tspan></text>
    <path d="M607.04,67.66c-7.53,0-15.06-.02-22.58-.02,4.22-20.78,8.45-41.57,12.67-62.35,7.7-.04,15.41-.08,23.11-.12-4.4,20.83-8.8,41.67-13.2,62.5Z" class="cls-3"/>
    <path d="M630.23,67.54c-5.9.03-11.8.07-17.69.1,4.22-20.78,8.45-41.57,12.67-62.35,5.68-.03,11.36-.06,17.04-.09,3.12-.02,5.44,2.86,4.78,5.9-3.76,17.32-7.53,34.65-11.29,51.97-.56,2.6-2.86,4.46-5.51,4.47Z" class="cls-1"/>
  </g>
</svg>