<svg width="403" height="598" viewBox="0 0 403 598" fill="none" xmlns="http://www.w3.org/2000/svg">
<g clip-path="url(#clip0_117_6)">
<path d="M202.27 598.01L200.04 596.73C167.02 539.7 134.81 482.17 101.45 425.34C41.29 322.85 -43.77 223.52 26.49 100.72C98.94 -25.9 279.99 -34.88 365.1 83.7C457.25 212.09 358.95 326.74 294.11 437.34C263.76 489.11 235.03 541.9 204.1 593.33C203.23 594.78 202.5 596.31 202.27 598.01Z" fill="#2A6AAD"/>
<path d="M56.824 217.72H99.832V234.36H56.824V217.72ZM58.36 267H37.624V177.4H105.336V194.04H58.36V267ZM119.374 267V177.4H158.158C166.179 177.4 173.091 178.723 178.894 181.368C184.697 183.928 189.177 187.64 192.334 192.504C195.491 197.368 197.07 203.171 197.07 209.912C197.07 216.568 195.491 222.328 192.334 227.192C189.177 231.971 184.697 235.64 178.894 238.2C173.091 240.76 166.179 242.04 158.158 242.04H130.894L140.11 232.952V267H119.374ZM176.334 267L153.934 234.488H176.078L198.734 267H176.334ZM140.11 235.256L130.894 225.528H157.006C163.406 225.528 168.185 224.163 171.342 221.432C174.499 218.616 176.078 214.776 176.078 209.912C176.078 204.963 174.499 201.123 171.342 198.392C168.185 195.661 163.406 194.296 157.006 194.296H130.894L140.11 184.44V235.256ZM232.571 213.496H275.707V229.624H232.571V213.496ZM234.107 250.36H282.875V267H213.499V177.4H281.211V194.04H234.107V250.36ZM318.446 213.496H361.582V229.624H318.446V213.496ZM319.982 250.36H368.75V267H299.374V177.4H367.086V194.04H319.982V250.36Z" fill="white"/>
</g>
<defs>
<clipPath id="clip0_117_6">
<rect width="402.69" height="598.01" fill="white"/>
</clipPath>
</defs>
</svg>
