<svg width="403" height="598" viewBox="0 0 403 598" fill="none" xmlns="http://www.w3.org/2000/svg">
<g clip-path="url(#clip0_117_2)">
<path d="M202.27 598.01L200.04 596.73C167.02 539.7 134.81 482.17 101.45 425.34C41.29 322.85 -43.77 223.52 26.49 100.72C98.94 -25.9 279.99 -34.88 365.1 83.7C457.25 212.09 358.95 326.74 294.11 437.34C263.76 489.11 235.03 541.9 204.1 593.33C203.23 594.78 202.5 596.31 202.27 598.01Z" fill="#BF272D"/>
<path d="M103.5 239.25V218.25H238.25V239.25H103.5ZM103.5 204.75V183.75H238.25V204.75H103.5ZM222.5 302C208.833 302 196.167 299.833 184.5 295.5C173 291 163 284.667 154.5 276.5C146 268.333 139.417 258.75 134.75 247.75C130.083 236.75 127.75 224.667 127.75 211.5C127.75 198.333 130.083 186.25 134.75 175.25C139.417 164.25 146 154.667 154.5 146.5C163 138.333 173 132.083 184.5 127.75C196.167 123.25 208.833 121 222.5 121C237.667 121 251.417 123.667 263.75 129C276.083 134.167 286.333 141.833 294.5 152L268.75 176C262.75 169.167 256.083 164.083 248.75 160.75C241.417 157.25 233.333 155.5 224.5 155.5C216.333 155.5 208.833 156.833 202 159.5C195.167 162.167 189.25 166 184.25 171C179.25 176 175.333 181.917 172.5 188.75C169.833 195.583 168.5 203.167 168.5 211.5C168.5 219.833 169.833 227.417 172.5 234.25C175.333 241.083 179.25 247 184.25 252C189.25 257 195.167 260.833 202 263.5C208.833 266.167 216.333 267.5 224.5 267.5C233.333 267.5 241.417 265.833 248.75 262.5C256.083 259 262.75 253.75 268.75 246.75L294.5 270.75C286.333 280.917 276.083 288.667 263.75 294C251.417 299.333 237.667 302 222.5 302Z" fill="white"/>
</g>
<defs>
<clipPath id="clip0_117_2">
<rect width="402.69" height="598.01" fill="white"/>
</clipPath>
</defs>
</svg>
